<mxfile host="65bd71144e">
    <diagram id="BQFz-XB5lkVHLVsSoiTs" name="第 1 页">
        <mxGraphModel dx="2032" dy="694" grid="1" gridSize="10" guides="1" tooltips="1" connect="1" arrows="1" fold="1" page="1" pageScale="1" pageWidth="827" pageHeight="1169" math="0" shadow="0">
            <root>
                <mxCell id="0"/>
                <mxCell id="1" parent="0"/>
                <mxCell id="48" value="&lt;font style=&quot;font-size: 10px;&quot;&gt;&lt;span style=&quot;background-color: rgb(255, 255, 255);&quot;&gt;数据传输&lt;/span&gt;&lt;br style=&quot;border-color: var(--border-color);&quot;&gt;&lt;span style=&quot;background-color: rgb(255, 255, 255);&quot;&gt;（&lt;/span&gt;&lt;span style=&quot;border-color: var(--border-color);&quot;&gt;TCP / WebSocket / Unix域套接字 / 管道）&lt;/span&gt;&lt;/font&gt;" style="rounded=0;whiteSpace=wrap;html=1;dashed=1;fillColor=none;strokeColor=#FFB366;strokeWidth=3;labelPosition=center;verticalLabelPosition=middle;align=center;verticalAlign=bottom;" vertex="1" parent="1">
                    <mxGeometry x="-540" y="460" width="210" height="210" as="geometry"/>
                </mxCell>
                <mxCell id="11" style="edgeStyle=none;html=1;exitX=0.5;exitY=1;exitDx=0;exitDy=0;entryX=0.5;entryY=0;entryDx=0;entryDy=0;" edge="1" parent="1" source="7" target="9">
                    <mxGeometry relative="1" as="geometry"/>
                </mxCell>
                <mxCell id="12" value="(3) serialize&lt;br&gt;序列化" style="edgeLabel;html=1;align=center;verticalAlign=middle;resizable=0;points=[];" vertex="1" connectable="0" parent="11">
                    <mxGeometry x="-0.2696" y="2" relative="1" as="geometry">
                        <mxPoint x="-2" y="2" as="offset"/>
                    </mxGeometry>
                </mxCell>
                <mxCell id="7" value="&lt;span style=&quot;&quot;&gt;type: call&lt;br&gt;method: methodB&lt;br&gt;args: [1,3]&lt;/span&gt;" style="rounded=0;whiteSpace=wrap;html=1;align=left;spacingLeft=4;fillColor=#e1d5e7;strokeColor=#9673a6;" vertex="1" parent="1">
                    <mxGeometry x="-803" y="309.43" width="118" height="61.5" as="geometry"/>
                </mxCell>
                <mxCell id="10" style="edgeStyle=none;html=1;exitX=0.25;exitY=1;exitDx=0;exitDy=0;entryX=0.5;entryY=0;entryDx=0;entryDy=0;" edge="1" parent="1" source="8" target="7">
                    <mxGeometry relative="1" as="geometry"/>
                </mxCell>
                <mxCell id="13" value="(2) Conver to call frame&lt;br&gt;转为调用帧" style="edgeLabel;html=1;align=center;verticalAlign=middle;resizable=0;points=[];" vertex="1" connectable="0" parent="10">
                    <mxGeometry x="-0.3295" y="-1" relative="1" as="geometry">
                        <mxPoint x="1" y="7" as="offset"/>
                    </mxGeometry>
                </mxCell>
                <mxCell id="8" value="&lt;span style=&quot;&quot;&gt;res = await portYService.methodD(1,3)&lt;/span&gt;" style="rounded=0;whiteSpace=wrap;html=1;fillColor=#d5e8d4;strokeColor=#82b366;" vertex="1" parent="1">
                    <mxGeometry x="-810" y="196.5" width="266" height="30" as="geometry"/>
                </mxCell>
                <mxCell id="34" style="edgeStyle=none;html=1;exitX=1;exitY=0.5;exitDx=0;exitDy=0;entryX=0;entryY=0.5;entryDx=0;entryDy=0;" edge="1" parent="1" source="9" target="18">
                    <mxGeometry relative="1" as="geometry"/>
                </mxCell>
                <mxCell id="35" value="(4) transmission&lt;br&gt;传输" style="edgeLabel;html=1;align=center;verticalAlign=middle;resizable=0;points=[];" vertex="1" connectable="0" parent="34">
                    <mxGeometry x="0.0451" y="-1" relative="1" as="geometry">
                        <mxPoint x="-30" y="-18" as="offset"/>
                    </mxGeometry>
                </mxCell>
                <mxCell id="9" value="1010100101..." style="rounded=0;whiteSpace=wrap;html=1;fillColor=#ffe6cc;strokeColor=#d79b00;" vertex="1" parent="1">
                    <mxGeometry x="-800" y="547.5" width="110" height="35" as="geometry"/>
                </mxCell>
                <mxCell id="21" style="edgeStyle=none;html=1;exitX=0.5;exitY=0;exitDx=0;exitDy=0;entryX=0.5;entryY=1;entryDx=0;entryDy=0;" edge="1" parent="1" source="18" target="20">
                    <mxGeometry relative="1" as="geometry"/>
                </mxCell>
                <mxCell id="22" value="(5) deserialize&lt;br&gt;反序列化" style="edgeLabel;html=1;align=center;verticalAlign=middle;resizable=0;points=[];" vertex="1" connectable="0" parent="21">
                    <mxGeometry x="0.0783" relative="1" as="geometry">
                        <mxPoint as="offset"/>
                    </mxGeometry>
                </mxCell>
                <mxCell id="18" value="1010100101..." style="rounded=0;whiteSpace=wrap;html=1;fillColor=#ffe6cc;strokeColor=#d79b00;" vertex="1" parent="1">
                    <mxGeometry x="-162.75" y="547.5" width="110" height="35" as="geometry"/>
                </mxCell>
                <mxCell id="24" style="edgeStyle=none;html=1;exitX=0.5;exitY=0;exitDx=0;exitDy=0;entryX=0.75;entryY=1;entryDx=0;entryDy=0;" edge="1" parent="1" source="20" target="23">
                    <mxGeometry relative="1" as="geometry"/>
                </mxCell>
                <mxCell id="25" value="(6) Process call frame&lt;br&gt;处理调用帧" style="edgeLabel;html=1;align=center;verticalAlign=middle;resizable=0;points=[];" vertex="1" connectable="0" parent="24">
                    <mxGeometry x="0.046" relative="1" as="geometry">
                        <mxPoint as="offset"/>
                    </mxGeometry>
                </mxCell>
                <mxCell id="20" value="&lt;span style=&quot;&quot;&gt;type: call&lt;br&gt;method: methodB&lt;br&gt;args: [1,3]&lt;/span&gt;" style="rounded=0;whiteSpace=wrap;html=1;align=left;spacingLeft=4;fillColor=#e1d5e7;strokeColor=#9673a6;" vertex="1" parent="1">
                    <mxGeometry x="-166.25" y="305.18" width="117" height="70" as="geometry"/>
                </mxCell>
                <mxCell id="31" style="edgeStyle=none;html=1;exitX=0.25;exitY=1;exitDx=0;exitDy=0;entryX=0.5;entryY=0;entryDx=0;entryDy=0;" edge="1" parent="1" source="23" target="30">
                    <mxGeometry relative="1" as="geometry"/>
                </mxCell>
                <mxCell id="36" value="(8) Conver to response frame&lt;br&gt;转为响应帧" style="edgeLabel;html=1;align=center;verticalAlign=middle;resizable=0;points=[];" vertex="1" connectable="0" parent="31">
                    <mxGeometry x="-0.1101" y="3" relative="1" as="geometry">
                        <mxPoint as="offset"/>
                    </mxGeometry>
                </mxCell>
                <mxCell id="23" value="&lt;span style=&quot;&quot;&gt;&amp;nbsp; res = portYService.methodD(1,3)&lt;/span&gt;" style="rounded=0;whiteSpace=wrap;html=1;fillColor=#d5e8d4;strokeColor=#82b366;" vertex="1" parent="1">
                    <mxGeometry x="-340" y="196.5" width="309.5" height="30" as="geometry"/>
                </mxCell>
                <mxCell id="26" value="" style="shape=image;verticalLabelPosition=bottom;labelBackgroundColor=default;verticalAlign=top;aspect=fixed;imageAspect=0;image=data:image/png,iVBORw0KGgoAAAANSUhEUgAAAVUAAABFCAYAAAD6rXUBAAAACXBIWXMAAAsTAAALEwEAmpwYAAAdaElEQVR4nO2dd2BUVdbAf/OmZCa9904ooTddaaIIyAKigopGZGVtrOLKp7ur7iqg2Na6rAVX2UUQBQQLVV0LSJMqJSEQQnpCem9T3/v+GJgwJCGTQlm5v3+SvNvOve/mvHPvfe8cVWxsrIJAIBAIugTpUgsgEAgEvyaEUhUIBIIuRChVgUAg6EKEUhUIBIIuRChVgUAg6EKEUhUIBIIuRChVgUAg6EKEUhUIuhAPvepSiyC4xHRaqaokNeGjktB4+HZamLCRdxFx/Swirp8Fqstb3/v3G+OQVR8QdanFuWyRPD3QhgWC6uIpG21IAH4TRl209gAWPGwjfXMuR77Mpk83oVivZDSdrUCl1RM5egY1OSnU1Vd1qi6PsO7o/UJwD46jcOcqZHNjZ8W7YBgCovCM6IFP7ABMVYUYy/MuqTzdX3sSQ3QYAIrVRu3xDAqWfoElv6jTdcc8+QBV+5Op/mG341rCy0/gFhrE0fv+CrIMQPzCx3CPjiBl1lMYukUT9cjd6MOC7AVsMukvvU9jyolOy9MW7v16EHXvVCq/2X7B2zrDtLElZOT6MnmOF1ar+EjxSuayMgdPrnmenP9+eKnFcImCrctIW/E0KJfJP5BKhbGolGOPv0z+x1/h2TOeiFlTu6Rqj57x6CPDnK7lvLMCtbueoNtuBMDQuxuePeIoWPEVyDJRf0hCpZY49vjLJM/8CwWrNyEbTV0iT1vU7jpI2l/fvChtnUGrsZB8woDVKqzUK50OWaq+ideScNNcJK0btfnHnNIknTvdb38G75h+qFQS1TlHOLHyWRSbFQCP8EQSpv0FN+9gACrSfubk2hfabDPhjvn4dRuCSq1BNhvJ3bKckn1fOdIHP7GakoPfEjRwLFp3XxqKs0j58JE25TkfGncfut/+LJ4RPVFJakxVRRx57wEU2XbecmEjphMx8k4krRuK1UxF2m4yvvw7YFfAMb+dQ2Cf0aj1HshmI8dXLaAu9wgAAQPGETX6HnTegSg2K/nbV1K4Y2WbsgLIJguWgmIqC4rxTOyG328G2BMkiajHZuI7tB8qtURDzimyXlyMraYOgKA7fovPkH6YS8vwHdwXgMx/LMN7cCL+wwYj6XWE3DiKoDHDsNbVc/yR57AUFFOx6xdCbx5L+cYfiZp9F6aSciq/2wWAPiKY4g0/YikoBqB83Q9OsobMvIWgcSORdBpMJeVkvrQYS2EZAIbEeLo9NZvCdd8TdvNYJDctJd9sx1RaQdiUG0idPc/xMIubPwdrTR15b30EQO8lL6FSSyhmM6kPzXNq0617LHGPzUQX6AdA5b4j5L2xFACvYYOIeuAONB4GbA1GchavpG7vYZfGHUBSqbHahEIVdNBS7TbpUUy1pZxc/wZ6f2cLpvttf8U7qje53/+b7G/fxzuqD6HXTANApXEj8Z6XkDRaMjb9k7TPnkeR21ZuALKpnoz1/+Dof56gKusgsTc+iJtfuCNdo/ckfNg0avOOceLzV6jNS21TnrbomfQinmEJnNq5hqPL/kxjWS5ILjyHVBJ5W1eQvOQx8rZ9QkCfawn5zS0AeEb3I2TIRAp2reHIB3PI37EaRWlS0nHjZ9NQkknyh3PI2PgPLPWVLsnqhFqNR0IM1jr79knATWPwu2YgZT/+TMEnGzBEhhI1Z4Yju8bHC/fYcDy7x5L3yXoKVm9GkW0Ur/0vGS8vRjaaqTyQTMbLi8l6fYmj3KkPV6MoCgkv/wl9SCC5765wpDXmFhIy8Toi5tyNoVeck3h+vx1NyKTrKPthF1lvfYRKoyHyobsc6ZLODUmvI+zmsZT+sIuc9z7FUlVDzZ4jaHy98Lq6vz2fhztevROoO2tLIevNf1O2dQ8aHy/nW+Kmo/u8OUhaDTn/Wk3Ga0tQbPZtC21YMHFzf0djzikyXv2QhpwCYh+52+XhHjcM1BorOw5qXS4j+PXSbktV6xuCWu9B1mfPUZebgqRxI37So450n7hBNJbnoXZzB8BcU0LwoBsp3LmagL7XI2nd7JZZjt0KqE7f41K7meteR+sVhF+vEZgqTgFgCE3AVHnKkafuVBon1ywEoOrYtjblOR+Szh2P0HiK9m2g4KflAJxYddQlWQt3rETSGfBLHImk0aFYzXiEdW+Wz1xVSNGus+RQSai0OkCFtb6aiuQfXWrvDO6RofR6Zx46f1+QVOR9vA4Av+GDsFbVUvjvtQB49k7Aq1+PZuXTn3/XYVmeobGsAtlmw1xWRePxLKc0ucFE4dpvibhrEjWHjzulZ7++hMg/JBEwcigBo66iMa+IzJf/ha28kqAJI5GNZqy19bhFhNCYnY/PoN6o3HQoJrOjjuINP1C69lvnMSutIGDscGr3HMZv3AhQFKq2NM2hxtQMdOHBzfrmPXIwkk5Dxt+X05hyEoD6A/b7GTj5OgDqUtMxxEZSfyILr8RueAzp48jTEl4esG9lLlqtwjc7wvh6+2WyFSS4pLRbqfp2uwqAutOW4JmfAFrPAFCpUOs98es5HACryYi1oRoAQ0AEKIpDobaH3rPexDO8J6aaEqyN9QCodXqnPBVpzgq6LXnOhyEwBoCq9L3tljX6xj8QOnQylsZqzDUVIKmRtG4A1OUmU5G2m+gx9xI95l7qizI5sfo5LLWloMjk/riMqNF3M2jux1jqK8n46k1qsg641K7VaKJyXzLG3EJqdu5HMdtXARovDxpPlTjyNWTk4jO4t1NZ2WhuplBdoerHn4m4axKVuw46XbcUl5O14G1QqwmYOJqIuyYTPG0chR98hs7HGwDf0xYnQEPOKSRPD2xnKdWqbfuatVf+015CbxkHkkTAtVdRezwTxXr+7RgAfWgwKIpDoZ6NW0gg2GR8hvZrkie7AMnN7bx11jfAn9+I5v5p9UwYWUhcRCwZ+UKxXum0W6meWVYbgmNpLM7EENy0tDuzVK1K30/2pn80K2uqLgGVCkNoAo1FzSc3gGyzAKDWGRyn//rgeDwjepG6/C/U5abgGd2f3jNfafaajqXB+e2DtuQ5H6YquwXsFd2XmszWlZqiyKi1TcpdJakJHTqZwr3ryPvuA1BJXPX0OqBJ1pNrnkclqQkYOIG4CbOJuDaJ7E2LACjevZbi3Wvxjh9Kt1v/RNykRzj8zu9dktlcVknxsi+bXbc1GHEL9nf8rY8KbaaI5LOUWTNkBUmjdkmG5o3bKN/wI34jBuPTvxeFgLW+AUWWOfnka+ctaq2qaXat4tsdhN02Ab+xw9BHBFP4+TcuiWEurwSVCre4CExZBU5plir7Q/bk02843mRwBVmBDT/B1zvdOb5exZ0Tbbz4wWV19iu4BLR7BhhLMpEtJqKun4nWK4jw4bc1JSoyDaU5BCSOwDt+KACe0f0JHDQBgMrjO0FRiJ/0KPqAKCSdO6HDpzvVX5+XiiLbCL92BhoPX1SS2qE7NR7+aL2CiBn/gGvCtiHP+bA2VGOuqyBkyER7WZVE2IjpqNTOz6HG8nyCBo5D6x2CpDOgyDKy1YzW3RtJZyBmwsOopCaF5BHRG99eI1FkG1VpO1FsVsfWhKQzEDr8dlRqDbW5yZiry7BZjK719TzUppxAF+CL14jBuHWPxWdAIo35rluljfmFeA9MRB3gB5JrUybm6Yfw6N/Lvr87uDfu0eHUHk0HoHLvEdyCA/AbNxzUEtrQQIJua/ueANhq6jDmFxP5u6n2V8fOsZBbo2bPYVAUIh+4E21ECJK7GwG3jAWgYus+UEuE3X8bkqc7krueoOkTkTzcXarbalVhtYKPR9sWs+DXT4dO/0/tWkvk6LsZ9NjVzQ5S0j9bSOI9r9Ar6XnHteIDX1PGN1jqKsjYuIj4iXPo/4d/AdBQkuW8r4hCwfZVhA+/jZDBE8jbsozCnaupzj5Mj2lP2cuU5pzOes5Sq4XXm84nT1ukrVpAr7tfcJRVrGaK9nwFNB2u5f34EfGTH2XQH5dSk5vC8eV/4dTuL4kYcTuB/cYgm41YjXWcOfnXB4TTbcrjjvLmmjJy/vs+AJJGR9R1M4keMwsAm7Ge9C9eaVPO1vru6O/KjXgPTCTujzMBkBtN5L23otX851Ky/gei7r+DPu/NRzZbSbnnT2227xYaSLe/zXakNeQWUvjxers8K9ZhiA4j6v47iLr/DgAa84ooXXvOPZFb7lP51t1EzLiZ6oOpTu2G/O5WQiaOdvzdf7V9dXJ09rPYKmvIeX8V0Q/cQeKbTwP2LYfyr76nMeUEhV9+R9gtYwm6wb5NJJutVHy9zcURAotNQ884MyAOq650VB0NpyLp3NF5BWIsz20xXePhi9YrCGNZLoq1+fuJ+sAYFJvF6aCpLTTuPqgkDZa68nbL25Y850PrFYTG3YvGkmxQXFseqiQ1bn4RLY6PSq1BHxSLqaoI2Vh3bir6gEgU2dausXEFtb83ksHQob3TjiB5uqMNDsCUUwC25uOmctOhiwzFWlrheL3rYqCNDAWrFUtRmXOCJOEWE4Zc34ilpKJddS560sLk604hKypueiSG41lib/VKpcNKVSAQOOPvDfFRKg6lyeIjgCuYTn+mKhAI7FTUQMVRhbMPJQVXHuKoUiAQCLoQoVQFAoGgC2m3Uo2Njb0AYggEAsGvA2GpCgQCQRcilKpAIBB0Ib8KpTplyjVcN7p/2xnb4LrR/Zky5Zp2lenn35fVv/0U6TKPVNAR1H5eBEwd7/JXVJcDbp4+hCcOutRitImheyw+17dvrrnKU0P+woN97r8gdXcl/4vzyxX+p16pmjv3Vvz9vZg3b7nT9bvuuoHS0iq2/nSkU/VPnTaKoCAf1q/fzVtvzqZf/3gALGYryclZPDtvKSaTs6vCB/rex46Cncjt+CjghgefYsjkJLR6A588PYusfT91Su4LhT4qgojpE6nYtNXJe9TlysPLfsQ/IhYAm83CyT1bWTPvoUsrVCv4jr4Kv2sGUr1ld9uZ28nX2d/wysgXWZW2mhprbZfX31X8r80vV/mfekQkJESQkBB50dqzmK08+eSHbNi4i0GDE/jnojlO6Ym+ifTy78mq9M9crnPs7L9xzbTfU1tmD3Oi/pU9pS8lNWVFfPX3J3jrjqs5tv1beg4fR1TfoZdarIvO4fIjFDcUc1fPOy+1KFckF9VS3bBhISoVuLnpyMwoJL5bGJkZhTw02/6N9pQp1/Dgg5PR63WYjGbefW8dmzfvY+rUETz4wCTUpz0lffP1SwA8/MjbZGYWAhDg78W6dc/j7u7G8eN5PPbYe8iyTGioL2+8PpvgED9kWeHwoZM8+dS/URQFvV7HO+/MISYmBKvFRkODCbPF4pBXlmUOHEjnwIF0PD0NjB9/FcHBPpSU2L0aXR06lApjBaWNpU79fGjJN6i1OnyCw1FrtBRlHuejR6diNZs48t8v2LXqfYLiejDj784W9xmWLl2Kr68vzzzzDEePuubDNfaZh0FRcI+JQOPtQfXBY+S8tgRkmYBbx+F3zSBOPvkqACH33IxHQgyZ8/9J7DMP4x4bgcbTnbr0bNzjorDW1JH+7KKmup9+CK9e8cgmCzmLP6V29yHA/rln3J/vQx8SiGy1Ufr1Noo/We8oFzd/DubyKjzio9GHByGbLKQ+8hxyXb1LfWqJJzcepao4j8DoBBRFIfn7r9jw6p8BWPFEkiPfupf+j77XTWbwlBnkpewHwNfXl6VLl2IymbjzTtcVTu8PXqA2LQOf/okgSXY/r599bR+bv87GVFpO4YdrAIh/YS51qRlU70um+zMP2yuQJBpyC/CMi6Jw3feUrt5sv6zV0uvd+egC/TCXV5Gx8B1H9IO2IhH0XvIS5Vt+JmD0b9D4eNKQfcpxfwEOlR5hUPBAOGf6XMwxKPl0A72XvAio0HgaqD16Eq8+CdQePUnWwncddXd0fp1vDCZNmsSMGTPIzs7m6aefdrmfXcFFNZP0eh0pKdmUllYTGxfKhx9uoltCOD26R5CQEM4f/ziVwsJyXn11NacKy/njo7cCsGXLYebNX0ZBQRk11Q3Mm7+MefOXkZ/fpMxCQv3ZseMIn3++jcTEaEaMsPsLXbhwFgGBPqxc+SO7d6cyeEgP7r13HABJSdcTExPC+vU/s2tXCj6+Hq3K/vPP9rAxffs0uTqM8YrhVH1hs7zuPn74R8SSuv0bftm8itD4Xlw97T4Aik+mUF9R0qzM2Xh7e6PVanF3d81LEoDO3xfv/j0p27qbgpWb8BncG0PvBAC0vt7oApqi3Wr9fRwhRXT+vljrGijbsud0jKl1aDzc8bvuakd+Q1gQ2e9+grmymuiHTv8jShLdn38MSasla9FySr/bSciUMWjDgp3aCRg1FJvRRM57n1K+Yx8qqXNfG2n1BgIi49m+4l3yjx1iwPhpePgHNss3eLJdwZ7Y9b3jmlqtRqvV4uHR+n1uCY23Bz6D+lCw4itqUtIImzre4XZSF+hvdwp+Gp2/L1p/byQ3HZJeZ4/ZBWi9PSn9YRchk8c48kp6HaaSCnLeX4XGw52IWXaPb65EItB4Ggi5aQy1aZlk/WMZ9ScyndLzavOI8opo1peLOQZ2Od2pPpRKY34xnr3iyVm8Eq++3dFGhDjyd3R+nW8MPD090Wq1+Pn5taufXcFFX3tu2XKY9PR86mob+eyzbSiKQmRkEPfcY3fDdvRoNj17RnHiRB4arYbx44dQWVnH3r1p1NU1YjJb2Ls3jb170zCbm/Y3q6vqee21tbz//iYsZiujRtpjLUVHh3AsNYf//Odb5s9fjtFo4tpr7Ydaw65JpLS0mrff/oqFL3yK8TyB6crK7NZpSGjT5An1CKa8sWXnLsb6Gta9NJfNb/2Nusoyegy7weUx2rp1K/v37yc/P9/lMmD3p1ry6UbK132PbDTjfY4j6taoO55B9W67FVT5zXbM5VWOfwqAgpWbqNm+n7wla1C761EH+OHRrycaDwP1J7JwCw/GVteAbLYSdPMYp7pls5WMv75B9bZ9FH64pkscp+QdPcC2ZW/x8dzpoCgMmniXU7pPaBTjH3mG0uwTHNu60XG9vr6e/fv3s2PHjna3Wbn7IJXf7aJgyVq7T+BzQsS0Wu67XZgrKqlLy6RqzyEkrbNf2pzXPqB6y27Kt+3Fs4e9zpYiEUh6HR5D+jiVrTuZQ94b/6H254OOqA5nKG0sRSvp0Kic27sUY1C1+xB1aZlYqmqo/mkvKIrjoQ6dm1+tjUFqaioHDx5k69at7e5nZ7noB1XGRiMWsxXbWc6A3fRaQoL9UBSFIYObwnwUnirHYNC5VG9hUZNyMxpNeHm7o1KpUKsl0k40hY8uKanC28v+lA4LD+T4sVynNIOhZW/vwUE+AJwqaPJsVFRfQqChuZUEUFPaZMFWFuYSFNs8nEprvP322y7nPZvGvKY2rfUNaLxds0YUqw3ZYna40ZOtViRtkwu7hrQMe/3H7D89B/VCrbc75nYLC8bttPVgPFWMra7Bqe76jJwO9eV8FJ5IscutyJiNDcQNHs6OFfYx03l48sD767EYG1n62G1O5YxGIwsWLOhQmw0nsgGwldtdXWq8vc6T+zRn3BJaZWSzBUxWJ8fqstGM3GB/kDek5xA0fiSSu97lSATV+1NabTrIEITRZsSqOPt4vehjACgmM4rFimw9bQTJCio3LYrRvtXWmfnV2hgkJyeTnJzsYs+6lsvm9L+yyn5K+bt7X0Nuxfu6ooBK1fLyUW7B96aiKCiKQkxM01LD39+b2hr7jSkrqyYo2MeR5ufnhdHY8inkyJH2CX40tUkJZ9dm0zugZefKnr5NytYrMITa0qIW87XETTfdhK+vLxs3bqSysh2B/1rxqSqbzEjaplutDw1yqZwjf0wklsIy3GLty8mGY5noI0MBKPj4yxZDlJzBVt/QatrUqfYQ2l988cV52z+XwOhujt+1egNFJ+1bM5JGw+x/f4tG58bi39+Iud7ZKlar1SQlJWE0GlmzZk272mx1bC0WJENT5Aetj2uKBuzLf9RqsNlwiwxFNluRG4wuRyKwVrdu9Ud7RXOqrvnW1OU2BtC5+dXaGAQHB3PttddSXl7Oli1b2iVPZ7lsjp43b96LSqViwYIZ+Pt74e3tweOPT8XPz9OR59ixbPz9vRjQPx7JxVPzsrJq+veLZ9DAbtx++yg8PQ2kHLUHqDtwIJ3Q0ABGjerLzTcPw8vLeQ9TkiSGDUvk8cenct31A0k/UUBZWVOIj/3Fv+Cv9yfIcI6SAtx9/Bk4OYneY6bgExxO+p6tjrSYQcMJTbAv5UK69SZm0HCnsvfeey/Tp08nISHBpT62Re2RY/blY/9euPfrgXtM87228xFy8w2oA/wImz7REcuq7tAxFKuNiHtute+PqSV8rr8GQ1/XZU5KSiIpKantjOcQ0/83RPQZwriH56FSSRzcZA/h/cD7G/EOCOX7f72CX0QMsUNG4hcR7yjn6+vL9OnTmTlzZrvbbI2645l4xEWhDQkg4OaxqNoZdiZ05i1owwLxHznEYdV3NhIBwICgfhwqbR4L7nIcgwsxvwYMGMCdd97Zpf10lUtiqSrnPPFkWWH79hS+/noPEyZczfDh9v1Qq9XG8uVNBw1ffLGDkSP78/obD6FSqZgz558cP54PKM3qPMOrf1/NSy/dx2uv299XLCmpYtEi++HB6tVbGDt2MPPn2wfedI6VqtVpWLhwFhazlV9+SefZZz9ySk+tTOVk1UnuSLiNd5MXO6VZzEYmz30BsO+v7vm8KbTzPa81ed2//vdPAPDC2HjOpbU+tYii0Cz36QuNRzMwFpbaPfErCubyqnNzNi+nKCin373V+fvS5735ABSs2mTPYjKTtegjYh/9ncOTPjaZrLc/biZXS/j6+p5Obr87XwWFWYvsVlZhegplOfYwLUEx3UGlYsKjCxx5c1P2s3zuHR1u6wzyOWXP/Fm5dTcB115F4j+ftS/njebT4y6flVcB5ewr9goUq42gscMJnjAKxWoj5x372LkciaCV/vTz70uIewgrTzSPGHxxx6D1dhX5ws4vHx/7CrSxsbFdfewK2u2kOjY2luzs7AsjDXbrsE+faGpqGsjJOf8peXvo1SuSqqoGioqae3Tv1SuS/Pwy6uraHw9qaNBgnhs2j5s2THV8APB/a/ZQlp/N2vl/wDc8isLj7Y8eeyHQhgZiKa0EW/tjKWlPe+hv6SVtbVggaLT2iAIuBs6bOnUqSUlJ7N69m9dff91lOZ75PpPvP3iFEz//gM1iproor+1CFwFtREjHIipIEm7RoZhyi5qPXQcjETx39XyqzFW8dWhR25m7kA6PAV0/v1588UV69uzJW2+9xc6dOzskU0e5bPZUzyDLMsnJ2V1er92ibX9aW+wv/YVJ629pMa2xpoLGmvaF5biQNAsf0p6y+a3vCZ95t7I99O/fH5vNxuLFi9vO3AIVeRkdKneh6HCIGlnGlN1K2BxZbhb51RXm732uY7J0ks6E6enq+WWxWEhNTb3oChUuQ6X6a+Dols1UXiYW1OVKR0+gT+7dyqnLxPIXXL50dH51BZfd8l8gEAj+l7lsTv8FAoHg10C7laqwUgUCgaB1hKUqEAgEXUiHlKqHXoTgFQgEgpbo0On/Tx8V4edjJPeUD9ff59t2AYFAILhC6JClOvTOEF7/KJro8GoG9Gg7v0AgEFwpdHhPdcNWe9HQlp00CQQCwRVJh5XqGQf5rXjKEwgEgiuSDivV4goFq1XL1LGNdNKZu0AgEPxq6NQrVQsWh3N1v1KOb8hn7oyOe78RCASCXwud+vb/8XtKMFncePvTEDZvU9HM35dAIBBcYXRYqXp7gr9vI6/+J5oln4NQqAKBQNCJ5b+3h30jNbtAbKgKBALBGTqsVEcNsVumJRVCqQoEAsEZOrT83/VxJSGBNVRW6zmcJpb9AoFAcIZ2+1MF6JcAtfWQ3TxYo0AgEFzRdMhSTW49YqxAIBBc0QjXfwKBQNCFCKUqEAgEXYhQqgKBQNCFCKUqEAgEXYhQqgKBQNCFCKUqEAgEXYhQqgKBQNCFCKUqEAgEXYhQqgKBQNCFCKUqEAgEXYhQqgKBQNCF/D+PoUGd9YD4RgAAAABJRU5ErkJggg==;" vertex="1" parent="1">
                    <mxGeometry x="-370" y="85" width="341" height="69" as="geometry"/>
                </mxCell>
                <mxCell id="27" value="" style="shape=image;verticalLabelPosition=bottom;labelBackgroundColor=default;verticalAlign=top;aspect=fixed;imageAspect=0;image=data:image/png,iVBORw0KGgoAAAANSUhEUgAAAUoAAABPCAYAAACNk4wCAAAACXBIWXMAAAsTAAALEwEAmpwYAAAgAElEQVR4nO2dd2BUxdqHnz1bk03f9J4QSugBVHoTEAVBAQVREO8VRcUrV79ruwr2hvVaQMWCDRALRcCGRDqIUhICIQnpvdftu98fSzZZUjYhAQKe5x/lTHtn9uQ978yc8xtJZGSkFRERERGRFhEutgEiIiIiXR3RUYqIiIg4QXSUIiIiIk4QHaWIiIiIE0RHKSJynlCrJBfbBJFOolMdpUSQEjxqLjK1V4frChp5CyHj7iBk3B0g6dr+3KffeLutKk3YxTanyyK4qZEH+YLkwjkQeYAG78mjLlh7AE/dayZlaxbHvs+gTzfRWV4OyDqzMolcReiY26jKTKSmtqJDdamDuqPyDsDVP4r8PWuxGLSdZGXn46IJwy2kB56RA9BX5KMrzb6o9nRf/ggu4UEAWE1mqk+mkfvJdxhzCjpcd8QjC6k4lEDl9v32a5rpVxMy93pSnngTbUoGAD3ffhKJTMbJe5bh0j2SsPtuRRXkZytgtpDywkq0iac6bI8zXPv1IGzBDMp/3HXe26pn5oQi0rK8mLrYHZNJfPvucqDLhmqp658h8+cPL7YZbSI3fjXJXzwG1i7yRyGRoCso5sSDL5Lz+QbcekYTcseMTqla3TMaVWiQw7XSjdsxlFYQ8cB8ALwnj0LpryHzrU8BCLtnLhKpwIkHXyRh/sPkrtuCRafvFHucUb33MMmPv35B2qpHLjOScMoFk0mMJi8XOhxResWOJub6JQhyJdU5JxzSBIUr3W96Ao+IfkgkApWZxzi15kmsZhMA6uBYYmY+jNLDH4Cy5H2kfvOc0zZjbl6Gd7fBSKQyLAYdWTs+o+iPDfb0QQ+to+jwT/gNnIDc1Yu6wnQSP7zPqT2tIXP1pPtNT+IW0hOJIEVfUcCx9xZitZhbLRc0YjYhI+cgyJVYTQbKkveT9v3LgM2pRly7GN8+Y5Cq1FgMOk6ufYqarGMAaAZMJGzMPBQevljNJnJ2rSF/9xqntgJY9EaMuYWU5xbiFtsN76sG2BIEgbAH5uM1pB8SqUBdZh7pz6/AXFUDgN/N1+I5uB+G4hK8BvUF4PSbq/EYFIvPsEEIKgUB14zCb/wwTDW1nLzvaQDS3/iUns8tQTP9aoJmXUvZvsNoT6YDoArxp3DzbxhzCwGbY21MwPwb8Js4EkEhQ19UyukXVmDMLwHAJTaabo8uIn/jrwRNn4CglFP04y70xWUETbuapEVL7Q+oqGWLMVXVkP3GpwD0XvUCEqmA1WAg6e6lDm0qu0cS9cB8FL7eAJT/cYzs1z4BwH1YHGELb0amdsFcpyNzxRpqDh5t07gDCBIpJrPoJC8nOhxRdptyP/rqYlI3vYbKxzHS6D7rcTzCepP160dk/LQSj7A+BA6dCYBEpiR23gsIMjlpW/5H8tfPYLU4d1gAFn0taZve5PjHD1GRfpjIa+5C6R1sT5ep3AgeNpPq7BOc+vYlqrOTnNrjjJ5zn8ctKIa8Pes5vvo/aEuyQGjDc0YikB3/BQmrHiB755do+owm4KobAHAL70fA4OvI3bueYx8sJmf3OqzWBscbNWkRdUWnSfhwMWk/vImxtrxNtjoglaKOicBUY1u60Fw/Hu+hAyn5bR+5X27GJTSQsMW32bPLPN1xjQzGrXsk2V9uInfdVqwWM4Xf/Ezaiyuw6AyU/5lA2osrSH91lb2cPiWD8v1HCJl7PVgs5L73pT1Nm5VPwHVjCVl8Ky69ohzM8752DAFTxlKyfS/pb3yKRCYj9O5b7OmCQomgUhA0fQLF2/eS+d5XGCuqqDpwDJmXO+5X9rflU7vi3juGmkbT+fTXP6Ik/gAyT3fHn0SpoPvSxQhyGZnvryNt+SqsZgsA8iB/opbcjjYzj7RXPqQuM5fI+25t83BPHAZSmYndh+VtLiPS9elQRCn3CkCqUpP+9dPUZCUiyJRET7nfnu4ZFYe2NBup0hUAQ1UR/nHXkL9nHZq+4xDkSlsElWl7WlemHGhTu6c3vorc3Q/vXiPQl+UB4BIYg748z56nJi+Z1PXPAlBxYqdTe1pDULiiDoym4I/N5P7+GQCn1h5vk635u9cgKFzwjh2JIFNgNRlQB3Vvks9QkU/B3kZ2SAQkcgUgwVRbSVnCb21qrx7X0EB6vbMUhY8XCBKyP98IgPfwOEwV1eR/9A0Abr1jcO/Xo0n5lGfetUeA9WhLyrCYzRhKKuzRYmNqEk/hPXQg2twCrIaGh17Gq6sIvWcumpFD0Iy6Am12AadffB9zaTl+k0di0RkwVdeiDAlAm5GDZ1xvJEoFVr3BXkfh5u0Uf/OT45gVl6GZMJzqA0fxnjgCrFYqdjTcQ9qkNBTB/k3s9Bg5CEEhI+3lz9AmpgJQ+6ft9/SdOtbWl6QUXCJDqT2VjntsN9SD+9jzNIe7Gv5Yk4VcbuXH3UFs29VFlmFEOoUOOUqvblcAUHMmYqv/L4DcTQMSCVKVG949hwNg0usw1VUC4KIJAavV7iTbQ+87XsctuCf6qiJM2loApAqVQ56yZEen68ye1nDxjQCgIuVgu20Nv+YeAodMxaitxFBVBoIUQa4EoCYrgbLk/YSPX0D4+AXUFpzm1LqnMVYXg9VC1m+rCRtzK3FLPsdYW07ahtepSv+zTe2adHrK/0hAl5VP1Z5Ddsclc1ejzSuy56tLy8JzUG+HshadoYmTdIZEqSBk/gwMxWWou4WjHhBL7VHbUoyxsJT0p94GqRTNdWMIuWUq/jMnkv/B1yg8PQDwOhMZAtRl5iG4qTE3cpQVO/9o0mbp7wcJvGEiCAKa0VdQffI0VlPrSyEAqkB/sFrtTrIxygBfMFvwHNKvwZ6MXASlstU6a+vgP6+Fc+fMWiaPzCcqJJK0HNFZXi50yFHWT2ld/CPRFp7Gxb9hWlU/TaxIOUTGljeblNVXFoFEgktgDNqCpjcsgMVsBECqcLHveqv8o3EL6UXSZw9Tk5WIW3h/es9/qckrJ8Y6x113Z/a0hr7CFqm6h/el6nTLjspqtSCVNzhsiSAlcMhU8g9uJPuXD0AicMVjG4EGW1PXP4NEkKIZOJmoyYsIGT2XjC1vAVC4/xsK93+DR/QQut34f0RNuY+j7/yjTTYbSsopXP19k+vmOh1Kfx/7v1VhgU2ci6WRg2qCxYogkza5HHrPLQhSgZTHXyfy0buIuO9Wku5+0nGDy2ymdPNveI8YhGf/XuQDpto6rBYLqY8sb7U/poqqJtfKftpN0KzJeE8YhirEn/xvf2y1jnoMpeUgkaCMCkGfnuuQZqywPThTH3sNLJY21QdgscLm32HbHldObpIw5zozz3/QZfdKRdpJh35JXdFpLEY9YePmI3f3I3j4rIZEq4W64kw0sSPwiB4CgFt4f3zjJgNQfnIPWK1ET7kflSYMQeFK4PDZDvXXZidhtZgJHn0bMrUXEkFq94cytQ9ydz8iJi1sm7FO7GkNU10lhpoyAgZfZysrEQgaMRuJ1PE5oy3NwW/gROQeAQgKF6wWCxaTAbmrB4LChYjJ9yIRGpyMOqQ3Xr1GYrWYqUjeg9Vssi8LCAoXAoffhEQqozorAUNlCWajrm19bYXqxFMoNF64jxiEsnskngNi0ea0PXrU5uTjMTAWqcYbBNvto+weifewOPK+/QlzVQ1Z736JzNMNv5uvBSDisbtR9+9lWy8d1BvX8GCqj6cAUH7wGEp/Dd4Th4NUQB7oi98s578JgLmqBl1OIaG3z7C9BrX3cJvKVR04ClYroQvnIA8JQHBVorlhAgBl8X+AVCDozlkIbq4Irir8Zl+HoHZtU90mkwSTCTzVziNbkUuHDu965+39htAxtxL3wJVNNhtSvn6W2Hkv0WvuM/ZrhX9uo4QfMdaUkfbDW0Rft5j+97wPQF1RuuM6HVZyd60lePgsAgZNJnvHavL3rKMy4yg9Zj5qK1OceSbrWdOcZl7Vac0eZySvfYpetz5nL2s1GSg4sAFoWIvL/u1ToqfeT9y/PqEqK5GTnz1M3v7vCRlxE779xmMx6DDpaqjf8VZpguk27UF7eUNVCZk/rwRAkCkIGzuf8PF3AGDW1ZLy3UtO7Wyp7/b+rvkBj4GxRP3L9iqPRasn+70v2lYvULRpO2F33kyf95ZhMZhInPd/RC25HUNZJSXf2tYQjbmFlO8/QtD0CZRuiUcZ6Eu3/y6y21aXlU/+55ts9nyxEZfwIMLuvJmwO28GQJtdQPE3Z/0mlub7VBq/n5DbplN5OMmh3wG330jAdWPs/+6/zjaLOL7oSczlVWSuXEv4wpuJff0xwDbdL93wK9rEU+R//wtBN0zA72rbEo3FYKJs2842j5HRLKNnlAEQN3QuFySdoUcpKFxRuPuiK81qNl2m9kLu7oeuJAurqen7cyrfCKxmo8NmjDNkrp5IBBnGmtJ22+vMntaQu/shc3VHW5QB1rZNzSSCFKV3SLPjI5HKUPlFoq8owKKrOTsVlSYUq8XcrrFpC1IfDwQXl3avRZ4rgpsrcn8N+sxcMDcdN4lSgSI0EFNxmf1VpQuBPDQQTCaMBSWOCYKAMiIIS60WY1FZu+p86xEjU8fmYbFKuP6+CE6mi2uVlzqd4ihFREQc8fGA6DAJR5It4ovnlwGd+gmjiIiIjbIqKDtupfHGncili7gtJyIiIuIE0VGKiIiIOKFDjjIyMrKTzBARERHpuogRpYiIiIgTREcpIiIi4oTLzlFOmzaUsWP6O8/ohLFj+jNt2tB2lenn05d1136FcJYi+6ODH+auPnd22KaugseoISijRSV3kb8Pl+zrQUuW3IiPjztLl37mcP2WW66muLiC+N+Pdaj+GTNH4efnyaZNNiXva6+9ggULrkGj8eCXXw7x8stfNymzsO8/2Z27B8tZL6Jvy/iRl0Y+z9rkdVSZqjtkVz39v3odpDaHbKqupfLoCfJWrGmTKERHCb19BuX7/iL/9MVVchcRuVBcshFlTEwIMTGhF6St6OggHnroJnQ6PVarFanQdNhivWLp5dOTtSlNHejR0mMU1hVyS885nWpX6e8HSX7kFUp+249m5BB8rh3dqfW3RMpT/6NofdsEKERELgcuWkS5efOzSCSgVCo4nZZPdLcgTqflc/ci2ze506YN5a67pqJSKdDrDLz73ka2bv2DGTNGcNfCKUjPKNj8uO0FAO69721On84HQOPjzsaNz+DqquTkyWweeOA9LBYLgYFevPbqIvwDvLFYrBw9ksojj36E1WpFpVLwzjuLiYgIwGQ0U1enx2C0qRcVFpbxwAPvcvx4Jj/91Pz31lcGDqFMV0axtrjZ9CPFx4jzHwhnSRp6eXnxySefoNfrmTOnfY7UVF2LPiOPoow8fMdcgWbsUEo37wBsat+G0grU0eGogv2w6I0k3fc0ljptiwrnkU/ci2tkCDI3V2pSMnCNCsNUVUPKk2/ZtCPnTMH/GttBXQWbtlP6/S92W5SRwYQvno9LaAAAVceSyXjhzHfrrkrCH/wnHr1jQJBQfTyVjBdXNol+BYnA1SHjuTFmGl+c+Ip9FX/RffnDqPxtEnmmiirS3/jEroXZ+4PnqE5Ow7N/LAiCTbPy621IfX2Ife1R0l/7mNpjJwHb8RRBs64l874XWDXuPTakbmZLxlZqTLXNju3KlSvx9PTk2WefJSkpqdk8In8fLlpEqVIpSEzMoLi4ksioQD78cAvdYoLp0T2EmJhg/vWvGeTnl/LKK+vIyy/lX/ffCMCOHUdZumw1ubklVFXWsXTZapYuW01OToODCgj0YffuY3z77U5iY8MZMcKmt/jss3eg8fVkzZrf2L8/iUGDe7BgwUQA5s4dR0REAJs27WPv3kQ8vdT2+mpr9Rw/ntlqfyLcI8irzW8xPbs6mzD3kCbXpVIpcrkctVrdTKm2IfVwQ+bpTm1ag41yH080o4Zg1unJfO8rSnf/gUSQtKpwrvDxwlRTR8mOA7j1iCL3i43I1K54j70SgLJf93H6tY+RCAIKH08HG4Ln3YjUVUXKk2+R+vwKahtNy8OX3IFbr2iyv9xE9qff4dYrGp+p4+3pQa7BLO53LxumfsOSQYvJqMoiuSIFiVRAl51P2ovvk/rce5h0ero9usheTuahxjOuD7lfbKAqMZmgGZNAIsFcUoapTovftIY2/K4dja6wGK2hju1Z8dzUYybrp6xl6RX/pa93nyZj6u7ujlwuR6VSNUkT+ftxUdcod+w4yvDhvVEqovj6650sXDiF0FA/xoy1bcYcP55Bz55hnDqVTVRUEJMmDebnn//k4MFk5s/XolDIOXgwuUm9lRW1LF9uU/CePm0Eo0b2ZdeuRMLDA0g6nsHHH9tUbn744VlGj+7PJ5/8zLChsRQXV/L227azd64aGtuuvgSq/cmtaVm4olhbjFxQIJNIMTU67qG2tpZDhw6h1bb/lEm/CSPwHhaHQuOF1WSm6PtfHdItBhNpj78GQOUZ4VtnCuc1J9Oo3H8U3/FDKf9xF36TRiH3sYnrmkvKbCrnxqZHdtQft2AxGdEnZFCX0HAkg0f/nuhyi5CqbOK3+pIyfK8eSuWmHbw+cjm9fHqSUp7Ku0dWsj1nu8P4ZC3/CGVUCG4De2MoLEUV6OfQbvn+w5T/speqv07g9d4yXHpFoT1xmtLt+wiaMQmJTIrg6YEq0I/0N1djsVpYlfQxq5I+Zoj/EKZHTeX1McspqCtk2b5nSK+2Rau7du1Co9GQl9e5YiQilyYX1VHqtDqMBhPmRgKpSpWcAH9vrFYrgwc1/AHn55Xi4qJoU735BQ2KQjqdHncPVyQSCVKpQPKphkinqKgCD3dbJBcU7MvJE1kOaS4urataN6agtghfF98W0/1c/NCZdQ5OwGafjqeeeqrN7TiULSyhOvEUNUeT7WrijWkcYdbjTOHcajJjMRrskmUWkwlB7lwuLHf1d0Quvo2eL/0Hi8FE/jfbKN24HamPB0gkCK4qu4q5RWfAVFWDTCIn3CMcs9XMyYpkTpSfcBgfiUJGnw+eRyKXoS8sRVDa7JDIpPZpe92pDADMpTaJP5mHzWGXbt1B0Kxr8Jo4EmWgLxaDiep9jnqVqRWpJFecIlbTCz8XX9zkDVH9ypUrnfZZ5O9Dl9z1Lq+w7QzfvmA5lhZUpq1WkEiaFxywNKNdaLVasVqtREQE2K/5+HhQXVUHQElJJX7+DdNJb293dLpWlL7PIqM6g96algVnw93DyatpOjWXSqXMnTsXnU7H+vXr29weQHVCMoVnzsJpDnNtXdNrzhTOz/HI3bqEUyTdvRR5aCBhi+YQcstUyrb9jrnCJplWdfQEeSvXNil345ZZjA0ew43dprNqwvtkVmWxJX0rP2b9gtv1o5HIZSTe/jBWk5nABTPwv3Y0CI1+9xbstdTpqT55Gr+JI5B5uFF+4AgAEiSMCh7B9VFTGOA3gIK6QtYkr2Nrxk9ozQ3jNW7cODQaDTt37qSoqKjZNkT+PnTJXe+tWw8ikUh46qnb8PFxx8NDzYMPzsDb282e58SJDHx83BnQPxqhmV3o5igpqaR/v2jiBnbjpptG4ebmQuJx21Trzz9TCAzUMGpUX6ZPH4a7u6OidUxMMIMGxSAIEnx8PBg0KAa1uiHiPFT4Fz4qH/xcHKeG9Qzw68eR4qbnA3l5eTF79mzmz5/fpj50lI4qnLeEz9RxSL09MOYWUpuSaTvV0GIFiwVtdgHeVw1EPcC2nOHSuxueE4YBtgfYjtx4/rXz39z+850cLT7GP/ou4MqAwUgECRKJBMHTA5deUWjGXNkum4o2/4YqxB+ZuytFG2zLEmqZK49d8QjVhhqW/P5/zP/5Dr5N+97BSQLMmzePOXPmEBcX1+GxEbn0uegRpfWsiMBisbJrVyLbth1g8uQrGT7cdra0yWTms88a1uC++243I0f259XX7kYikbB48f84eTIHsDaps55XXl7HCy/8k+Wv3g3YptdvvWVbk1y3bgcTJgxi2TKbw9KfFU2+8vJCPDxtU7OBcTEMjIvhjTe+YcsW24FjSeVJpFakcnPMLN5NWOFQtp9PXwJcA1hzqulpjy3Z2iaclW0mvd0K59aGehq/u+k3aSR+k0ZSdfQkGS+sxO+akYTOmw5WKxaTmYINv9gj1YxXV9Ft6WK6PX63vdriX/dw9rFu+XV5vJPwHisS30cuKDBsseI3YTh93lsG2FTIXSOCHdTOLWf1sfE/a/88bpvm19ZhzCmwXTPVMfOH2dSZm0bbjVEobMs8xcXNv8Ug8veiQ8K9kZGRZGRkdJ41ZyEIAn36hFNVVUdmZudNf3r1CqWioo6CgqbK1b16hZKTU0JNTfvPpxniN4inhy3l+s0zHF46f/rKZVQYKnjjyFsdsrszOR8K51KNNzJ3F/QZzW+ASD3ckPl6Y8gtdDiK1hnyQF/MVdVY6tqnRi+4qem76jly1211eJXJGT4+PnzwwQeUl5ezcGEbz2QSuazp0o5SRORcCbhtGprxwxCkUo4vfNzhnHFnDBkyhIULF/LRRx9x8GD7jygWufy46FNvEZHzgUVnoHzPn5RsiW+XkwQ4dOgQhw4dOk+WiVyKiI5S5LKkySmOIiIdoEvueouIiIh0JURHKSIiIuIE0VGKiIiIOEF0lCIiIiJOuOwc5flSOJdIJERFBeDj495imZYUzi8HpN7uaGZMgjZ+BdUVULp5Ehzb9b+scekeiee49qnpt5VLRV2/q99fl+yu94VUOJ869Sruv/9GpGe+Sikrq+all9bw11+pDmVaUjhvCYkg5eq7HmXw1LnIVS58+dgdpP/xe4fsPl+owkIImX0dZVvi2/Wy+MXi3tW/4RMSCYDZbCT1QDzrl97deqGLhNeYK/AeOpDKHfs7ve7zoa5/Pujq91fXdN9t4EIqnMtkUnb89hd3LHiFRx75ELWrksWLpzvkaU3hvCUmLPovQ2f+g+oS2+d1zSmni5wbVSUFbHj5Id64+UpO7PqJnsMnEtZ3yMU264JzvtT1/26ICudtUDjfsGGv3e7snBISEtMZPLhH4+60qHB+96ofkcoVePoHI5XJKTh9kk/vn4HJoOfYz9+xd+1K/KJ6cNvLjpFxPZ988gleXl488cQTHD9+vNk8ZxP5xL1gteIaEYLMQ03l4RNkLl8FFguaGyfiPTSO1EdeASBg3nTUMRGcXva/VhXO7XU/djfuvaKx6I1krviK6v02VR55aCBR//knqgBfLCYzxdt2UvjlJnu5FhXXa5pXGG8Lj/xwnIrCbHzDY7BarST8uoHNr/wHgC8emmvPt/GFf9N37FQGTbuN7ETbi+Tnqizfkqo6QOTji9AXl5L/oU0FKvq5JdQkpVH5RwLdn7jXVoEgUJeVi1tUGPkbf6V43VbbZbmcXu8uQ+HrjaG0grRn38GYXwKA+7A4whbejEztgrlOR+aKNdQcbBBY6b3qBUp37EMz5ipknm7UZeTZf1/ofHX9cxmDoq8203vV84AEmZsL1cdTce8TQ/XxVNKffdde97neX62NwZQpU7jtttvIyMjgsccea3M/GyMqnLdB4fxsevYIpbS0yuFaSwrnrp7e+IREkrTrR/7aupbA6F5cOfOfABSmJlJb1vo37B4eHsjlclxdXVvN1xiFjxce/XtSEr+f3DVb8BzUG5feMQDIvTxQaLzseeU+nih8ve3lWlM4B3AJ8iPj3S8xlFcSfveZPy5BoPszDyDI5aS/9RnFv+whYNp45EH+Du00p7jeEeQqFzSh0ez64l1yThxhwKSZqH2aaoIOmmpzmqf2NoiqnKuyfEuq6gAKXx8UPg1jq/DxQu7jgaBUIKgU5H5hE2CRe7hRvH0vAY1U3gWVAn1RGZkr1yJTuxJyxyxb3iB/opbcjjYzj7RXPqQuM5fI+251tMnNhYDrx1OdfJr0N1dTe+q0Q3pnq+ufyxjY7HSl8kgS2pxC3HpFk7liDe59uyMPaZA+PNf7q7UxcHNzQy6X4+3t3a5+NuaizvV27DhKSkoONdVavv56J1arldBQP+bNmwA4KpzL5DImTRpMeXkNBw8mU1OjRW8wcvBgMgcPJmNo9JlavcL5ypVbMBpMjBppUyAKDw/gRFImH3/8E8uWfYZOp2f0aNvGT2OF82ef+wqdrnkBhv8+fgvuHmpefslRWzFQ7U+ptrTZMrraKja+sIStb/yXmvISegy7us1jFB8fz6FDh8jJyWlzGQBDSTlFX/1A6cZfsegMeDQS522NeoVzgPIfd2EorbDf6AC5a7ZQtesQ2avWI3VVIdV4o+7XE5nahdpT6SiD/THX1GExmPCbPt6h7nrF9cqdf5D/4XrMVTXt6lNzZB//k52r3+DzJbPBaiXuulsc0j0Dw5h03xMUZ5ziRPwP9uv1yvK7d+9ud5v1quq5q74BiQSXXlFtK/fLXgxl5dQkn6biwBEEudQhPXP5B1Tu2E/pzoO49bDV6Tt1LAA1SSm4RIZSeyodQaVAPdjx+Iqa1EyyX/uY6n2H7er19TRW12/MxRiDiv1HqEk+jbGiisrfD4LVan9QQ8fur5bGICkpicOHDxMfH9/uftYjKpy3Q+F83ryrGTc+js8//4XDR9Ic0lpTOK8qbog0y/Oz8Ivs3qZ+ALz99tttztsYbXZDm6baOmQebYsanCmc1yXb+q09YfuvW1wvpGfOlVEG+aM885TX5RVirnGUMmtOcb2j5J9KtNlttWDQ1RE1aDi7v7CNmULtxsKVmzDqtHzywCyHch1Rlm9JVb1V6vXfTBYsBiPoTfYoDGzfpterI9WlZOI3aSSCqwplgC+YLXgO6dfQfkYugtLx3qw8lNhi0+dDXf+cxgCw6g1YjSYspjOBjcWKRCnHqrMtc3Xk/mppDBISEkhISGhjz5qnS+56d0WF8ylTruT2269h27YDrF7dVLKrNYVzN68GB+ruG0B1cUGz+Zrj+uuvx8vLix9++IHy8vI2l2tR+VtvQJA3/Oxnn0HjTONSFRGKMdcIAEYAAAXxSURBVL8EZaRtKld34jSq0EAAcj//Hm1iaotlm1Ncr2fGjBkAfPfdd622fza+4d3s/y9XuVCQajsSQ5DJWPTRT8gUSlb84xoMtY7Ra0eU5VscW6MRwaXhMDK5Z9ucB9im3kilYDajDA3EYjBhqdNhrLCpdqY+9hq08LcAYKpsOTo/H+r652MMoGP3V0tj4O/vz+jRoyktLWXHjh3tsqeeLrnN2tUUzocNi2XJkplkZhYSH3+MwYO7M3iwY1TYmsK5q6cPA6fOpff4aXj6B5NyIN6eFhE3nMAY2zQqoFtvIuKGO5RdsGABs2fPJiYmpk19dEb1sRO2qVv/Xrj264FrRNO1q9YImH41Uo03QbOvw6IzYMwtpObICawmMyHzbrStN0kFPMcNxaVv222eO3cuc+fOdZ7xLCL6X0VIn8FMvHcpEonA4S1rAFi48gc8NIH8+v5LeIdEEDl4JN4h0fZy50NZvubkadRRYcgDNGimT0Aikzov1IjA+TcgD/LFZ+Rge/RdFv8HSAWC7pyF4OaK4KrCb/Z1COq2r1lfSHX9jo7B+bi/BgwYwJw5czrUz4seUV4KCucTro5DIpEQERHAyy83CLlOmfI4er1tCtGawrnRoGPqkucA23rlgW9X2dPmLW9QFx/3j4cAeG5CNGfTLiV0q5Umuc9c0B5PQ5dfTLf/LgKrFUNphZO6ztR35t1QhY+XXXE8d+0WWxa9gfS3PiXy/tuJff3MrqLZQvrbnzexqzm8vLzOJLdfGtWKlTveskVD+SmJlGSmAOAX0R0kEibf/5Q9b1biIT5bcvM5t1VPS6rq5fH70Yy+gtj/PWmbSusMZ8bd0iivFayNr9gqsJrM+E0Yjv/kUVhNZjLfsY2dNvEU+d//QtANE/C72vYQtRhMlG3bedZANN+f86Wu3/4xaLldq+X83l+enraZ4rmcdFpPlxbuvRwUzv+9/gAlORl8s+wevILDyD/Z9Ml+MZAH+mIsLgez2Xnms8uGBmIqLmv2xWB5kC/I5Dbl9Famio2ZMWMGc+fOZf/+/bz66qtttuOJX0/z6wcvcWrfdsxGA5UF2c4LXQDkIQHnphwvCCjDA9FnFTQdO0FAGRGEpVaLsajpfdsSF0td/5zHgM6/v55//nl69uzJG2+8wZ49e87JposeUbaGxWIhISGj0+u1RZ7tT3PGoeK/mLLphmbTtFVlaKvafoOfb4wFJedeNqflNdb6d//aQ//+/TGbzaxYscJ55mYoy05znukCcs7Ha1gsLR6jgcWCPj233VUuO/j0udnSQTpyxEhn319Go5GkpKRzdpLQxR3l5cDxHVsp7yKRTlflXHdeUw/Gk9dFInSRrsu53l+N6dJTbxEREZGuQJfc9RYRERHpSnTIUYrRpIiIyN8BMaIUERERcUKHHaVa1TFhAxEREZGuTod3vX//tABvTx1ZeZ6M+6eX8wIiIiIilxgdjiiHzAng1U/DCQ+uZEAP5/lFRERELjU6ZY1yc7ytmsDmxXNERERELmk6xVGeEQLnLFUyERERkcuCTnGUhWVWTCY5MyZo6aBotYiIiEiXo9NeD3pqRTBX9ivm5OYcltx27qokIiIiIl2NTvvW+8F5ReiNSt7+KoCtOyU00VYSERERuUTpFEfp4QY+Xlpe+TicVd+C6CRFREQuJzpl6u2hti1MZuSKC5QiIiKXH53iKEcNtkWQRWWioxQREbn86PDUe+/n5QT4VlFeqeJosjjlFhERufzokB4lQL8YqK6FjKaHvImIiIhcFnQ4okxo+fRIERERkcsCUWZNRERExAmioxQRERFxgugoRURERJwgOkoRERERJ4iOUkRERMQJnXqut0SQEjRiNkV/bcVUW9GhuoJG3oIgVwGQG78arJbOMPFvj+DqjnvcJADMNeXUHP2taSaJgFvcBOqS9mHRVV8w26Qe/mA1Y64uvWBttobgpkbq6YYxvxgsbb//JDIpipAADAUlWPUGp/mlHm5opo4FwFhWSfmPuxzSNTMmIVUpAChau7Vdtoh0Dv8PFMlECPgZSgAAAAAASUVORK5CYII=;" vertex="1" parent="1">
                    <mxGeometry x="-810" y="80" width="330" height="79" as="geometry"/>
                </mxCell>
                <mxCell id="28" value="PortY" style="text;html=1;align=center;verticalAlign=middle;resizable=0;points=[];autosize=1;strokeColor=none;fillColor=none;" vertex="1" parent="1">
                    <mxGeometry x="-222" y="40" width="50" height="30" as="geometry"/>
                </mxCell>
                <mxCell id="29" value="PortX" style="text;html=1;align=center;verticalAlign=middle;resizable=0;points=[];autosize=1;strokeColor=none;fillColor=none;" vertex="1" parent="1">
                    <mxGeometry x="-685" y="40" width="50" height="30" as="geometry"/>
                </mxCell>
                <mxCell id="38" style="edgeStyle=none;html=1;exitX=0.5;exitY=1;exitDx=0;exitDy=0;entryX=0.5;entryY=0;entryDx=0;entryDy=0;" edge="1" parent="1" source="30" target="37">
                    <mxGeometry relative="1" as="geometry"/>
                </mxCell>
                <mxCell id="39" value="(9) serialize&lt;br style=&quot;border-color: var(--border-color);&quot;&gt;序列化" style="edgeLabel;html=1;align=center;verticalAlign=middle;resizable=0;points=[];" vertex="1" connectable="0" parent="38">
                    <mxGeometry x="-0.2323" relative="1" as="geometry">
                        <mxPoint as="offset"/>
                    </mxGeometry>
                </mxCell>
                <mxCell id="30" value="&lt;span style=&quot;&quot;&gt;type: return&lt;br&gt;result: 4&lt;/span&gt;" style="rounded=0;whiteSpace=wrap;html=1;align=left;spacingLeft=4;fillColor=#dae8fc;strokeColor=#6c8ebf;" vertex="1" parent="1">
                    <mxGeometry x="-305.75" y="315.18" width="90" height="50" as="geometry"/>
                </mxCell>
                <mxCell id="33" style="edgeStyle=none;html=1;exitX=0.5;exitY=0;exitDx=0;exitDy=0;entryX=0.75;entryY=1;entryDx=0;entryDy=0;" edge="1" parent="1" source="32" target="8">
                    <mxGeometry relative="1" as="geometry"/>
                </mxCell>
                <mxCell id="45" value="(12) Process response frame&lt;br&gt;处理响应帧" style="edgeLabel;html=1;align=center;verticalAlign=middle;resizable=0;points=[];" vertex="1" connectable="0" parent="33">
                    <mxGeometry x="0.0561" y="1" relative="1" as="geometry">
                        <mxPoint as="offset"/>
                    </mxGeometry>
                </mxCell>
                <mxCell id="32" value="&lt;span style=&quot;&quot;&gt;type: return&lt;br&gt;result: 4&lt;/span&gt;" style="rounded=0;whiteSpace=wrap;html=1;align=left;spacingLeft=4;fillColor=#dae8fc;strokeColor=#6c8ebf;" vertex="1" parent="1">
                    <mxGeometry x="-653" y="315.18" width="90" height="50" as="geometry"/>
                </mxCell>
                <mxCell id="41" style="edgeStyle=none;html=1;exitX=0;exitY=0.5;exitDx=0;exitDy=0;" edge="1" parent="1" source="37" target="40">
                    <mxGeometry relative="1" as="geometry"/>
                </mxCell>
                <mxCell id="42" value="(10) transmission&lt;br style=&quot;border-color: var(--border-color);&quot;&gt;传输" style="edgeLabel;html=1;align=center;verticalAlign=middle;resizable=0;points=[];" vertex="1" connectable="0" parent="41">
                    <mxGeometry x="0.0134" y="-2" relative="1" as="geometry">
                        <mxPoint y="-15" as="offset"/>
                    </mxGeometry>
                </mxCell>
                <mxCell id="37" value="1010100101..." style="rounded=0;whiteSpace=wrap;html=1;fillColor=#fff2cc;strokeColor=#d6b656;" vertex="1" parent="1">
                    <mxGeometry x="-315.75" y="490" width="110" height="35" as="geometry"/>
                </mxCell>
                <mxCell id="43" style="edgeStyle=none;html=1;exitX=0.5;exitY=0;exitDx=0;exitDy=0;entryX=0.5;entryY=1;entryDx=0;entryDy=0;" edge="1" parent="1" source="40" target="32">
                    <mxGeometry relative="1" as="geometry"/>
                </mxCell>
                <mxCell id="44" value="(11) deserialize&lt;br style=&quot;border-color: var(--border-color);&quot;&gt;反序列化" style="edgeLabel;html=1;align=center;verticalAlign=middle;resizable=0;points=[];" vertex="1" connectable="0" parent="43">
                    <mxGeometry x="0.0699" y="-1" relative="1" as="geometry">
                        <mxPoint as="offset"/>
                    </mxGeometry>
                </mxCell>
                <mxCell id="40" value="1010100101..." style="rounded=0;whiteSpace=wrap;html=1;fillColor=#fff2cc;strokeColor=#d6b656;" vertex="1" parent="1">
                    <mxGeometry x="-663" y="490" width="110" height="35" as="geometry"/>
                </mxCell>
                <mxCell id="51" value="(7) Execute method&lt;br&gt;执行方法" style="text;html=1;align=center;verticalAlign=middle;resizable=0;points=[];autosize=1;strokeColor=none;fillColor=none;fontSize=10;" vertex="1" parent="1">
                    <mxGeometry x="-252" y="154" width="110" height="40" as="geometry"/>
                </mxCell>
                <mxCell id="52" value="(1) Execute remote call&lt;br&gt;执行远程调用" style="text;html=1;align=center;verticalAlign=middle;resizable=0;points=[];autosize=1;strokeColor=none;fillColor=none;fontSize=10;dashed=1;strokeWidth=3;" vertex="1" parent="1">
                    <mxGeometry x="-810" y="161.5" width="130" height="40" as="geometry"/>
                </mxCell>
                <mxCell id="53" value="(13) Obtain result&lt;br&gt;得到结果" style="text;html=1;align=center;verticalAlign=middle;resizable=0;points=[];autosize=1;strokeColor=none;fillColor=none;fontSize=10;" vertex="1" parent="1">
                    <mxGeometry x="-673" y="161.5" width="100" height="40" as="geometry"/>
                </mxCell>
            </root>
        </mxGraphModel>
    </diagram>
</mxfile>